<mxfile host="app.diagrams.net" modified="2024-07-07T01:38:26.761Z" agent="Mozilla/5.0 (Macintosh; Intel Mac OS X 10_15_7) AppleWebKit/537.36 (KHTML, like Gecko) Chrome/114.0.0.0 Safari/537.36 Edg/114.0.1823.67" version="24.6.4" etag="TrZkSC4M50Qcz7ALBBYu" type="github">
  <diagram name="Page-1" id="yFvahPOB3amnLxOCZmBH">
    <mxGraphModel>
      <root>
        <mxCell id="0" />
        <mxCell id="1" parent="0" />
      </root>
    </mxGraphModel>
  </diagram>
</mxfile>
